# xmcd
# 
# Track frame offsets:
#     150
#     18867
#     28767
#     45782
#     62945
#     82487
#     102402
#     115315
#     133310
#     151740
# 
# Disc length: 2276
# 
# Revision: 0
# Processed by: cddbd v1.5.2PL0 Copyright (c) Steve Scherf et al.
# Submitted via: BonkEnc v1.0.5
# 
DISCID=8208e20a
DTITLE=Jethro Tull - Stand Up (Ultradisc)
DYEAR=1984
DGENRE=Classic Rock
TTITLE0=A New Day Yesterday
TTITLE1=Jeffrey Goes to Leicester Square
TTITLE2=Bourée
TTITLE3=Back To The Family
TTITLE4=Look Into The Sun
TTITLE5=Nothing Is Easy
TTITLE6=Fat Man
TTITLE7=We Used To Know
TTITLE8=Reasons For Waiting
TTITLE9=For A Thousand Mothers
EXTD=
EXTT0=
EXTT1=
EXTT2=
EXTT3=
EXTT4=
EXTT5=
EXTT6=
EXTT7=
EXTT8=
EXTT9=
PLAYORDER=
